<?xml version="1.0" standalone="no"?>
<!DOCTYPE svg PUBLIC "-//W3C//DTD SVG 20010904//EN"
 "http://www.w3.org/TR/2001/REC-SVG-20010904/DTD/svg10.dtd">
<svg version="1.0" xmlns="http://www.w3.org/2000/svg"
 width="50px" height="50px" viewBox="0 0 512.000000 512.000000"
 preserveAspectRatio="xMidYMid meet">

<g transform="translate(0.000000,512.000000) scale(0.100000,-0.100000)"
fill="#f67d48" stroke="none">
<path d="M2370 5110 c-104 -14 -260 -54 -367 -95 -305 -119 -566 -352 -703
-625 -132 -265 -159 -527 -84 -818 102 -396 329 -950 911 -2222 170 -371 336
-737 369 -813 l59 -137 17 37 c61 132 591 1315 688 1539 361 825 563 1348 649
1677 34 130 43 223 31 327 -19 170 -48 267 -123 414 -180 354 -527 606 -960
697 -108 23 -372 33 -487 19z m359 -596 c172 -45 342 -184 420 -344 94 -194
94 -390 -1 -589 -57 -119 -169 -231 -288 -289 -111 -54 -184 -72 -297 -72
-123 0 -180 13 -292 67 -79 38 -109 59 -177 127 -65 66 -90 99 -123 168 -94
195 -94 395 0 586 92 188 286 330 490 361 76 11 191 5 268 -15z"/>
<path d="M2085 976 c-329 -86 -538 -253 -552 -441 -31 -392 800 -656 1498
-476 204 53 344 124 450 230 218 218 100 480 -286 634 -86 34 -262 84 -269 76
-7 -7 -231 -510 -296 -664 -35 -82 -66 -154 -70 -158 -4 -4 -85 178 -181 405
-111 264 -179 414 -189 415 -8 1 -55 -8 -105 -21z"/>
</g>
</svg>
