<?xml version="1.0" standalone="no"?>
<!DOCTYPE svg PUBLIC "-//W3C//DTD SVG 20010904//EN"
 "http://www.w3.org/TR/2001/REC-SVG-20010904/DTD/svg10.dtd">
<svg version="1.0" xmlns="http://www.w3.org/2000/svg"
 width="50px" height="50px" viewBox="0 0 512.000000 512.000000"
 preserveAspectRatio="xMidYMid meet">

<g transform="translate(0.000000,512.000000) scale(0.100000,-0.100000)"
fill="#fff" stroke="none">
<path d="M3646 5099 l-26 -20 0 -195 c0 -248 -10 -234 170 -234 72 0 130 -3
130 -8 0 -4 -154 -161 -342 -349 l-343 -342 -355 -3 c-344 -3 -356 -4 -396
-25 -29 -15 -191 -185 -519 -543 l-477 -520 -113 0 c-105 0 -116 -2 -141 -23
-34 -30 -36 -83 -3 -109 18 -15 43 -18 170 -18 139 0 149 1 173 23 13 12 230
247 480 522 251 275 471 510 488 523 31 22 34 22 392 22 l361 0 442 443 c419
418 443 444 443 478 0 24 -7 42 -21 55 -19 17 -41 19 -205 22 l-184 3 0 85 0
84 376 0 c250 0 382 -4 396 -11 45 -24 48 -55 48 -444 l0 -365 -90 0 -90 0 -2
191 -3 192 -27 20 c-19 14 -34 18 -55 13 -19 -5 -174 -153 -496 -474 l-467
-467 -370 -5 -371 -5 -485 -530 c-288 -315 -497 -535 -515 -543 -23 -9 -151
-12 -562 -10 l-532 3 0 85 0 85 223 5 c207 5 225 6 238 24 23 33 18 82 -12
105 -25 20 -39 21 -285 21 l-258 0 -28 -24 -28 -24 0 -191 c0 -185 1 -191 23
-213 l23 -23 612 0 612 0 46 23 c36 18 145 131 522 541 l476 519 348 4 c343 3
349 3 393 27 29 15 180 158 437 414 l391 390 4 -132 c4 -180 -9 -171 239 -171
175 0 190 1 209 20 11 11 22 30 25 42 3 13 5 215 3 448 -3 384 -5 429 -21 465
-25 55 -63 93 -122 121 l-50 24 -436 0 c-426 0 -437 0 -463 -21z"/>
<path d="M3802 3177 l-22 -23 0 -1343 0 -1342 -87 3 -88 3 -3 1141 -2 1141
-21 19 c-20 18 -43 19 -454 19 -411 0 -434 -1 -454 -19 l-21 -19 -2 -1141 -3
-1141 -85 0 -85 0 -3 834 -2 835 -22 23 -21 23 -432 0 c-357 0 -435 -2 -451
-14 -18 -14 -19 -37 -24 -858 l-5 -843 -87 -3 -88 -3 0 596 c0 576 -1 596 -19
614 -11 11 -35 23 -53 26 -18 3 -214 5 -435 3 l-402 -3 -23 -23 -23 -23 -3
-594 -2 -595 -170 0 -169 0 -20 -26 c-20 -25 -21 -40 -21 -211 0 -182 0 -184
25 -208 l24 -25 431 0 431 0 24 25 c32 31 32 69 0 100 l-24 25 -381 0 -380 0
0 85 0 85 2410 0 2410 0 0 -85 0 -85 -1880 0 -1881 0 -24 -25 c-32 -31 -32
-69 0 -100 l24 -25 1931 0 1931 0 24 25 c25 24 25 26 25 208 0 171 -1 186 -21
211 l-20 26 -170 0 -169 0 0 584 c0 381 -4 593 -10 613 -10 28 -45 53 -74 53
-7 0 -25 -9 -40 -21 l-26 -20 -2 -602 -3 -602 -327 -3 -328 -2 0 1290 0 1290
330 0 330 0 0 -545 c0 -532 0 -545 20 -565 25 -25 71 -26 101 -1 l24 19 3 579
c1 318 0 588 -3 601 -3 12 -14 31 -25 42 -19 19 -35 20 -453 20 l-434 0 -21
-23z m-352 -1617 l0 -1090 -325 0 -325 0 0 1090 0 1090 325 0 325 0 0 -1090z
m-1130 -305 l0 -785 -325 0 -325 0 0 785 0 785 325 0 325 0 0 -785z m-1130
-240 l0 -545 -327 2 -328 3 -3 530 c-1 292 0 536 3 543 3 9 79 12 330 12 l325
0 0 -545z"/>
</g>
</svg>
