<?xml version="1.0" standalone="no"?>
<!DOCTYPE svg PUBLIC "-//W3C//DTD SVG 20010904//EN"
 "http://www.w3.org/TR/2001/REC-SVG-20010904/DTD/svg10.dtd">
<svg version="1.0" xmlns="http://www.w3.org/2000/svg"
 width="50px" height="50px" viewBox="0 0 512.000000 512.000000"
 preserveAspectRatio="xMidYMid meet">

<g transform="translate(0.000000,512.000000) scale(0.100000,-0.100000)"
fill="#fff" stroke="none">
<path d="M2508 4783 c-9 -10 -51 -88 -94 -175 l-78 -156 -175 -23 c-163 -22
-178 -25 -203 -50 -52 -51 -43 -69 109 -215 l137 -131 -33 -183 -33 -182 19
-27 c41 -54 55 -52 229 40 87 46 164 85 170 87 5 1 83 -36 172 -84 174 -92
191 -96 232 -52 26 28 26 29 -11 230 l-31 170 136 131 c149 144 158 161 113
212 -21 25 -36 29 -204 53 l-182 27 -76 155 c-42 85 -84 163 -92 173 -10 10
-30 17 -53 17 -23 0 -43 -7 -52 -17z m107 -354 c28 -56 59 -107 70 -115 11 -7
63 -18 115 -25 147 -18 145 -14 47 -102 -47 -43 -88 -89 -91 -102 -4 -14 3
-75 14 -137 11 -61 19 -112 17 -113 -1 -1 -45 21 -97 51 -54 30 -108 53 -126
53 -19 1 -68 -19 -130 -53 -54 -29 -100 -52 -101 -51 -2 1 6 53 18 116 11 62
18 123 15 135 -3 12 -44 57 -91 99 -47 43 -84 80 -81 82 2 2 53 11 112 19 60
9 119 22 131 29 12 8 43 60 69 115 26 55 50 100 53 100 4 0 29 -46 56 -101z"/>
<path d="M816 4068 c-10 -6 -54 -84 -97 -174 -75 -155 -80 -163 -111 -169 -18
-3 -98 -14 -177 -25 -80 -11 -155 -27 -167 -35 -26 -17 -39 -53 -29 -84 3 -11
65 -77 137 -146 l131 -126 -32 -177 c-17 -97 -31 -183 -31 -190 0 -23 48 -62
76 -62 15 0 98 38 185 85 l158 85 159 -85 c187 -101 216 -106 248 -44 13 27
12 43 -16 193 -16 90 -30 171 -30 181 0 11 56 72 129 141 78 75 130 133 133
148 7 36 -17 84 -45 91 -14 4 -98 16 -188 28 l-164 22 -86 168 c-47 93 -92
173 -100 178 -19 12 -60 11 -83 -3z m98 -366 c36 -72 62 -112 78 -119 13 -6
72 -16 131 -23 l108 -13 -91 -92 c-102 -105 -100 -95 -70 -245 10 -52 17 -96
15 -98 -2 -2 -50 22 -107 52 -58 31 -111 56 -119 56 -8 0 -63 -25 -122 -55
-59 -31 -107 -54 -107 -52 0 2 9 53 20 113 11 60 20 115 20 123 0 7 -41 55
-90 106 l-91 92 112 14 c139 16 149 24 208 153 24 53 45 96 47 96 2 0 28 -49
58 -108z"/>
<path d="M4218 4069 c-10 -5 -53 -83 -97 -174 -76 -157 -80 -164 -112 -170
-19 -3 -98 -14 -177 -25 -78 -11 -151 -24 -161 -29 -27 -15 -44 -62 -32 -93 5
-13 66 -78 135 -143 78 -74 126 -126 126 -138 0 -11 -14 -93 -30 -183 -28
-150 -29 -166 -16 -193 32 -62 62 -57 250 44 l159 85 157 -85 c87 -47 170 -85
184 -85 31 0 76 40 76 67 0 10 -14 94 -31 187 l-30 169 135 137 c138 138 149
157 126 200 -17 31 -38 38 -201 60 -85 11 -164 23 -177 25 -18 4 -39 40 -101
169 -47 99 -87 168 -99 175 -25 14 -61 14 -84 0z m158 -470 c16 -16 48 -24
138 -37 l117 -17 -82 -80 c-44 -44 -85 -90 -90 -102 -5 -15 -1 -61 12 -134 11
-61 19 -113 16 -115 -2 -2 -45 18 -96 46 -50 27 -103 53 -116 56 -18 4 -53 -9
-131 -50 -59 -31 -108 -55 -110 -53 -1 1 6 47 16 102 11 55 19 111 20 124 0
17 -26 51 -90 116 l-91 92 108 13 c59 7 118 17 131 23 16 7 42 48 80 122 l55
110 47 -98 c25 -53 55 -107 66 -118z"/>
<path d="M2344 3314 c-545 -91 -974 -535 -1054 -1089 -39 -275 26 -594 169
-829 l41 -69 -195 -338 c-139 -241 -195 -347 -195 -369 0 -30 37 -80 59 -80 5
0 96 13 201 30 105 16 199 30 208 30 10 0 56 -49 106 -111 130 -161 138 -169
178 -169 19 0 41 6 50 12 9 7 78 120 153 251 109 188 141 237 154 232 140 -54
542 -54 682 0 13 5 45 -44 154 -232 75 -131 144 -244 153 -250 9 -7 31 -13 50
-13 40 0 48 8 178 169 60 75 95 111 109 111 11 0 103 -14 205 -30 102 -16 191
-30 198 -30 25 0 62 48 62 80 0 22 -57 129 -195 369 l-195 338 41 69 c173 283
224 645 138 979 -123 483 -536 860 -1029 940 -115 18 -315 18 -426 -1z m408
-159 c221 -38 417 -138 581 -294 466 -445 464 -1184 -5 -1626 -446 -422 -1157
-402 -1580 43 -358 378 -409 954 -123 1392 93 142 275 304 430 382 76 39 220
87 305 103 101 18 288 18 392 0z m-912 -2163 c47 -32 111 -71 142 -87 32 -17
58 -33 58 -37 0 -11 -184 -328 -190 -328 -3 1 -45 50 -93 110 -54 67 -97 112
-112 116 -13 3 -83 -4 -154 -16 -72 -12 -135 -20 -140 -18 -4 1 51 105 123
229 l130 227 76 -70 c41 -38 113 -95 160 -126z m1808 -34 c72 -126 126 -228
120 -228 -6 0 -71 10 -145 21 -99 16 -140 19 -157 11 -12 -5 -61 -57 -107
-115 -46 -58 -87 -106 -90 -106 -3 -1 -48 74 -101 165 l-95 166 75 40 c104 54
203 124 292 207 41 38 76 68 76 67 1 0 60 -103 132 -228z"/>
<path d="M2417 2825 c-325 -62 -576 -318 -633 -646 -28 -163 -5 -319 71 -474
80 -163 197 -280 360 -360 122 -60 204 -79 345 -79 141 0 223 19 345 79 163
80 280 197 360 360 60 122 79 204 79 345 0 141 -19 223 -79 345 -80 163 -197
280 -360 360 -49 24 -119 51 -155 60 -97 23 -241 27 -333 10z m260 -160 c226
-43 421 -221 487 -444 82 -281 -59 -600 -324 -730 -252 -123 -523 -79 -720
119 -128 127 -184 261 -184 440 0 169 55 308 171 430 150 159 355 226 570 185z"/>
<path d="M2635 2089 l-202 -200 -58 101 c-60 106 -75 120 -124 120 -35 0 -71
-39 -71 -77 0 -30 164 -318 193 -338 49 -34 59 -27 314 228 134 133 246 252
249 265 13 51 -28 102 -82 102 -10 0 -109 -90 -219 -201z"/>
</g>
</svg>
