<?xml version="1.0" standalone="no"?>
<!DOCTYPE svg PUBLIC "-//W3C//DTD SVG 20010904//EN"
 "http://www.w3.org/TR/2001/REC-SVG-20010904/DTD/svg10.dtd">
<svg version="1.0" xmlns="http://www.w3.org/2000/svg"
 viewBox="0 0 512.000000 512.000000"
 preserveAspectRatio="xMidYMid meet">

<g transform="translate(0.000000,512.000000) scale(0.100000,-0.100000)"
fill="#000" stroke="none">
<path d="M3401 4669 c-344 -43 -648 -263 -806 -584 -91 -185 -122 -351 -106
-580 4 -71 7 -131 6 -133 -4 -5 -247 27 -360 48 -388 71 -767 225 -1095 443
-200 133 -338 248 -585 488 l-151 148 -42 -128 c-113 -341 -106 -607 23 -878
51 -109 87 -162 175 -263 83 -94 104 -126 96 -146 -8 -21 -44 -15 -201 37
-132 44 -190 56 -198 42 -15 -25 56 -308 110 -437 41 -100 125 -215 226 -313
109 -106 220 -182 374 -256 l108 -52 -190 -5 c-104 -3 -196 -9 -202 -13 -36
-23 16 -162 102 -275 142 -188 366 -335 664 -437 74 -25 136 -47 138 -49 7 -6
-254 -156 -352 -202 -123 -59 -333 -127 -469 -153 -108 -21 -205 -31 -500 -50
-82 -6 -154 -15 -159 -20 -13 -13 50 -51 218 -132 357 -171 638 -257 990 -305
178 -24 578 -24 760 0 540 70 1001 246 1372 523 467 348 894 921 1073 1440
103 297 200 755 200 944 0 108 17 207 42 248 13 20 86 101 163 181 201 208
295 321 295 355 0 14 -55 1 -208 -49 -185 -60 -222 -69 -241 -56 -24 14 -4 52
70 135 154 173 290 405 238 405 -5 0 -65 -25 -132 -57 -105 -48 -459 -173
-491 -173 -6 0 -72 41 -146 90 -166 111 -312 185 -405 205 -89 19 -307 27
-404 14z"/>
</g>
</svg>
